{
	"asset":{
		"generator":"Khronos glTF Blender I/O v4.2.69",
		"version":"2.0"
	},
	"scene":0,
	"scenes":[
		{
			"name":"Scene",
			"nodes":[
				0
			]
		}
	],
	"nodes":[
		{
			"mesh":0,
			"name":"idcard"
		}
	],
	"materials":[
		{
			"doubleSided":true,
			"emissiveTexture":{
				"index":0
			},
			"name":"Material.001",
			"pbrMetallicRoughness":{
				"baseColorTexture":{
					"index":1
				},
				"metallicRoughnessTexture":{
					"index":2
				}
			}
		}
	],
	"meshes":[
		{
			"name":"Cube.002",
			"primitives":[
				{
					"attributes":{
						"POSITION":0,
						"NORMAL":1,
						"TEXCOORD_0":2
					},
					"indices":3,
					"material":0
				}
			]
		}
	],
	"textures":[
		{
			"sampler":0,
			"source":0
		},
		{
			"sampler":0,
			"source":1
		},
		{
			"sampler":0,
			"source":2
		}
	],
	"images":[
		{
			"mimeType":"image/png",
			"name":"ID Card_DefaultMaterial_Emissive",
			"uri":"ID%20Card_DefaultMaterial_Emissive.png"
		},
		{
			"mimeType":"image/png",
			"name":"ID Card_DefaultMaterial_BaseColor",
			"uri":"ID%20Card_DefaultMaterial_BaseColor.png"
		},
		{
			"mimeType":"image/png",
			"name":"ID Card_DefaultMaterial_Metallic-ID Card_DefaultMaterial_Roughness",
			"uri":"ID%20Card_DefaultMaterial_Metallic-ID%20Card_DefaultMaterial_Roughness.png"
		}
	],
	"accessors":[
		{
			"bufferView":0,
			"componentType":5126,
			"count":526,
			"max":[
				1.4566779136657715,
				2.4967572689056396,
				0.01000005379319191
			],
			"min":[
				-1.4566779136657715,
				-2.4967572689056396,
				-0.01000005379319191
			],
			"type":"VEC3"
		},
		{
			"bufferView":1,
			"componentType":5126,
			"count":526,
			"type":"VEC3"
		},
		{
			"bufferView":2,
			"componentType":5126,
			"count":526,
			"type":"VEC2"
		},
		{
			"bufferView":3,
			"componentType":5123,
			"count":2292,
			"type":"SCALAR"
		}
	],
	"bufferViews":[
		{
			"buffer":0,
			"byteLength":6312,
			"byteOffset":0,
			"target":34962
		},
		{
			"buffer":0,
			"byteLength":6312,
			"byteOffset":6312,
			"target":34962
		},
		{
			"buffer":0,
			"byteLength":4208,
			"byteOffset":12624,
			"target":34962
		},
		{
			"buffer":0,
			"byteLength":4584,
			"byteOffset":16832,
			"target":34963
		}
	],
	"samplers":[
		{
			"magFilter":9729,
			"minFilter":9987
		}
	],
	"buffers":[
		{
			"byteLength":21416,
			"uri":"passport.bin"
		}
	]
}
